<svg width="92" height="80" viewBox="0 0 92 80" fill="none" xmlns="http://www.w3.org/2000/svg">
<path d="M83.5 59.2145V69.1625C83.5022 70.5305 83.2345 71.8856 82.7124 73.15C82.1903 74.4145 81.4239 75.5636 80.4571 76.5316C79.4903 77.4995 78.3421 78.2673 77.0783 78.7909C75.8144 79.3146 74.4597 79.5838 73.0916 79.5833H18.9083C17.5404 79.5833 16.1859 79.3137 14.9223 78.7898C13.6587 78.266 12.5108 77.4982 11.5441 76.5304C10.5774 75.5625 9.81101 74.4136 9.28868 73.1494C8.76634 71.8852 8.49834 70.5304 8.49998 69.1625V59.2145L0.408314 23.3187C-0.997936 15.9771 5.02915 12.25 10.8958 16.6312L26.2771 28.1271C27.0312 28.6896 27.6333 28.5479 28.0479 27.725L39.4146 5.07289C42.5312 -1.13753 49.4708 -1.13128 52.5833 5.07289L63.9521 27.725C64.3687 28.55 64.9666 28.6896 65.7229 28.1271L81.1041 16.6312C86.9708 12.2479 93 15.9687 91.5916 23.3187L83.5 59.2125V59.2145ZM16 54.5833H76L82.4375 26.0375L70.7083 34.8021C65.8062 38.4666 59.25 36.9333 56.5041 31.4625L46 10.5312L35.4937 31.4625C32.7521 36.9271 26.1937 38.4666 21.2896 34.8021L9.56456 26.0396L15.9979 54.5833H16ZM16.8333 69.1625C16.8317 69.436 16.8841 69.7072 16.9877 69.9604C17.0912 70.2136 17.2438 70.4438 17.4366 70.6378C17.6295 70.8318 17.8588 70.9858 18.1113 71.0908C18.3639 71.1959 18.6348 71.25 18.9083 71.25H73.0916C73.3653 71.2505 73.6365 71.1968 73.8893 71.092C74.1421 70.9871 74.3716 70.8332 74.5646 70.639C74.7575 70.4449 74.9101 70.2145 75.0134 69.961C75.1168 69.7076 75.1689 69.4362 75.1666 69.1625V62.9166H16.8333V69.1625Z" fill="#EC8205"/>
</svg>
