<svg className="w-45 h-45" viewBox="0 0 400 400" fill="none" xmlns="http://www.w3.org/2000/svg">
<circle cx="200" cy="200" r="200" fill="#EC8205"/>
<path d="M195.149 87.1217C194.797 87.1643 193.346 87.3133 191.961 87.4411C188.4 87.7817 182.355 88.974 178.706 90.0811C170.506 92.5296 163.12 96.2555 156.35 101.344C153.492 103.473 147.293 109.413 145.094 112.117C135.378 124.019 130.564 136.729 130.036 151.824C129.794 158.999 130.762 165.77 132.982 172.476C134.609 177.416 136.433 181.206 140.808 188.87C146.699 199.175 148.106 201.411 157.998 216.122C168.924 232.389 172.661 238.435 178.486 249.294C183.74 259.087 187.719 268.072 191.082 277.653C194.072 286.148 195.918 292.812 198.556 304.799C199.436 308.716 200.161 311.952 200.205 311.995C200.271 312.08 200.469 311.207 202.403 302.35C205.371 288.788 208.009 279.974 212.295 269.435C219.022 252.849 226.54 239.542 242.632 215.697C253.799 199.154 255.579 196.237 261.075 185.57C266.329 175.329 267.736 171.71 268.989 164.918C269.78 160.639 270 158.063 270 153.442C270 140.753 266.703 129.533 259.844 118.824C255.118 111.478 248.457 104.58 241.313 99.6407C232.322 93.4451 221.045 89.1869 209.548 87.654C205.547 87.1004 197.919 86.8236 195.149 87.1217Z" fill="#FFFCFC"/>
</svg>
